<svg width="13" height="11" viewBox="0 0 13 11" fill="none" xmlns="http://www.w3.org/2000/svg">
<path d="M2.3385 8.125H10.8135V8.6875C10.8135 9.08532 10.6555 9.46686 10.3742 9.74816C10.0928 10.0295 9.71132 10.1875 9.31349 10.1875H3.8385C3.44068 10.1875 3.05914 10.0295 2.77784 9.74816C2.49654 9.46686 2.3385 9.08532 2.3385 8.6875V8.125Z" stroke="#252525" stroke-linecap="round" stroke-linejoin="round"/>
<path d="M9.80097 5.8375H10.776C10.9268 5.83247 11.0772 5.85785 11.218 5.91213C11.3589 5.96641 11.4874 6.04848 11.5958 6.15345C11.7043 6.25842 11.7905 6.38415 11.8494 6.52314C11.9083 6.66214 11.9386 6.81155 11.9385 6.9625C11.9385 7.27081 11.816 7.5665 11.598 7.78451C11.38 8.00252 11.0843 8.125 10.776 8.125H2.37598C2.22503 8.12508 2.07562 8.09479 1.93662 8.03593C1.79763 7.97706 1.67189 7.89082 1.56692 7.78235C1.46195 7.67388 1.37988 7.54539 1.3256 7.40454C1.27132 7.26369 1.24594 7.11336 1.25098 6.9625C1.24574 6.81335 1.27126 6.66472 1.32595 6.52586C1.38063 6.387 1.46331 6.26088 1.56883 6.15535C1.67436 6.04982 1.80048 5.96715 1.93934 5.91246C2.0782 5.85778 2.22683 5.83226 2.37598 5.8375H5.67598" stroke="#252525" stroke-linecap="round" stroke-linejoin="round"/>
<path d="M11.9385 5.0875C11.9357 5.28533 11.8548 5.47403 11.7135 5.6125C11.6478 5.6861 11.5667 5.7444 11.476 5.78327C11.3853 5.82215 11.2871 5.84065 11.1885 5.8375H9.23849L7.9635 7.3L6.68849 5.8375H1.9635C1.86669 5.83763 1.77086 5.81804 1.68188 5.77991C1.5929 5.74178 1.51261 5.68592 1.44594 5.61573C1.37926 5.54555 1.32759 5.46252 1.29407 5.3717C1.26056 5.28088 1.24589 5.18417 1.25099 5.0875C1.24589 4.99082 1.26056 4.89413 1.29407 4.80331C1.32759 4.71249 1.37926 4.62945 1.44594 4.55927C1.51261 4.48908 1.5929 4.43322 1.68188 4.39509C1.77086 4.35696 1.86669 4.33736 1.9635 4.3375H11.1885C11.3874 4.3375 11.5782 4.41652 11.7188 4.55717C11.8595 4.69782 11.9385 4.88859 11.9385 5.0875Z" stroke="#252525" stroke-linecap="round" stroke-linejoin="round"/>
<path d="M5.56349 1H7.62599C8.48132 1 9.30161 1.33977 9.90641 1.94458C10.5112 2.54938 10.851 3.36968 10.851 4.225H2.3385C2.3385 3.36968 2.67827 2.54938 3.28307 1.94458C3.88788 1.33977 4.70817 1 5.56349 1Z" stroke="#252525" stroke-linecap="round" stroke-linejoin="round"/>
<path d="M4.47601 2.6875L4.92602 3.175" stroke="#252525" stroke-linecap="round" stroke-linejoin="round"/>
<path d="M8.526 2.5L9.0135 3.025" stroke="#252525" stroke-linecap="round" stroke-linejoin="round"/>
<path d="M6.276 2.725L6.801 2.2375" stroke="#252525" stroke-linecap="round" stroke-linejoin="round"/>
</svg>
