<svg width="16" height="14" viewBox="0 0 16 14" fill="none" xmlns="http://www.w3.org/2000/svg">
<path d="M2.45129 10.5H13.7513V11.25C13.7513 11.7804 13.5406 12.2891 13.1655 12.6642C12.7904 13.0393 12.2817 13.25 11.7513 13.25H4.45129C3.92086 13.25 3.41215 13.0393 3.03708 12.6642C2.66201 12.2891 2.45129 11.7804 2.45129 11.25V10.5Z" stroke="#0085FF" stroke-linecap="round" stroke-linejoin="round"/>
<path d="M12.4013 7.44999H13.7013C13.9025 7.44328 14.1029 7.47713 14.2907 7.5495C14.4785 7.62187 14.6498 7.73129 14.7945 7.87125C14.9391 8.01122 15.0541 8.17886 15.1325 8.36418C15.211 8.54951 15.2514 8.74873 15.2513 8.94999C15.2513 9.36108 15.088 9.75532 14.7973 10.046C14.5067 10.3367 14.1124 10.5 13.7013 10.5H2.50132C2.30006 10.5001 2.10085 10.4597 1.91552 10.3812C1.73019 10.3027 1.56255 10.1877 1.42259 10.0431C1.28262 9.89849 1.1732 9.72718 1.10082 9.53938C1.02845 9.35158 0.994612 9.15114 1.00132 8.94999C0.994336 8.75113 1.02837 8.55295 1.10128 8.36781C1.17419 8.18266 1.28443 8.0145 1.42513 7.8738C1.56584 7.73309 1.73399 7.62285 1.91914 7.54994C2.10428 7.47703 2.30246 7.44301 2.50132 7.44999H6.90133" stroke="#0085FF" stroke-linecap="round" stroke-linejoin="round"/>
<path d="M15.2513 6.45001C15.2476 6.71378 15.1397 6.96539 14.9513 7.15002C14.8637 7.24815 14.7556 7.32588 14.6346 7.37771C14.5137 7.42954 14.3828 7.45422 14.2513 7.45001H11.6513L9.95133 9.40002L8.25132 7.45001H1.95133C1.82225 7.45019 1.69448 7.42407 1.57584 7.37323C1.4572 7.32239 1.35015 7.24791 1.26125 7.15433C1.17235 7.06075 1.10346 6.95004 1.05877 6.82894C1.01408 6.70785 0.994523 6.57891 1.00132 6.45001C0.994523 6.32111 1.01408 6.19219 1.05877 6.07109C1.10346 5.95 1.17235 5.83929 1.26125 5.74571C1.35015 5.65212 1.4572 5.57764 1.57584 5.5268C1.69448 5.47597 1.82225 5.44983 1.95133 5.45001H14.2513C14.5165 5.45001 14.7709 5.55537 14.9584 5.74291C15.146 5.93044 15.2513 6.1848 15.2513 6.45001Z" stroke="#0085FF" stroke-linecap="round" stroke-linejoin="round"/>
<path d="M6.75128 1H9.50128C10.6417 1 11.7354 1.45303 12.5418 2.25944C13.3482 3.06584 13.8013 4.15957 13.8013 5.3H2.45129C2.45129 4.15957 2.90432 3.06584 3.71072 2.25944C4.51713 1.45303 5.61085 1 6.75128 1Z" stroke="#0085FF" stroke-linecap="round" stroke-linejoin="round"/>
<path d="M5.30133 3.25L5.90134 3.9" stroke="#0085FF" stroke-linecap="round" stroke-linejoin="round"/>
<path d="M10.7013 3L11.3513 3.7" stroke="#0085FF" stroke-linecap="round" stroke-linejoin="round"/>
<path d="M7.70129 3.3L8.40129 2.64999" stroke="#0085FF" stroke-linecap="round" stroke-linejoin="round"/>
</svg>

