<svg width="17" height="16" viewBox="0 0 17 16" fill="none" xmlns="http://www.w3.org/2000/svg">
<path d="M2.95129 11.5H14.2513V12.25C14.2513 12.7804 14.0406 13.2891 13.6655 13.6642C13.2904 14.0393 12.7817 14.25 12.2513 14.25H4.95129C4.42086 14.25 3.91215 14.0393 3.53708 13.6642C3.16201 13.2891 2.95129 12.7804 2.95129 12.25V11.5Z" stroke="#FFA800" stroke-linecap="round" stroke-linejoin="round"/>
<path d="M12.9013 8.44999H14.2013C14.4025 8.44328 14.6029 8.47713 14.7907 8.5495C14.9785 8.62187 15.1498 8.73129 15.2945 8.87125C15.4391 9.01122 15.5541 9.17886 15.6325 9.36418C15.711 9.54951 15.7514 9.74873 15.7513 9.94999C15.7513 10.3611 15.588 10.7553 15.2973 11.046C15.0067 11.3367 14.6124 11.5 14.2013 11.5H3.00132C2.80006 11.5001 2.60085 11.4597 2.41552 11.3812C2.23019 11.3027 2.06255 11.1877 1.92259 11.0431C1.78262 10.8985 1.6732 10.7272 1.60082 10.5394C1.52845 10.3516 1.49461 10.1511 1.50132 9.94999C1.49434 9.75113 1.52837 9.55295 1.60128 9.36781C1.67419 9.18266 1.78443 9.0145 1.92513 8.8738C2.06584 8.73309 2.23399 8.62285 2.41914 8.54994C2.60428 8.47703 2.80246 8.44301 3.00132 8.44999H7.40133" stroke="#FFA800" stroke-linecap="round" stroke-linejoin="round"/>
<path d="M15.7513 7.45C15.7476 7.71377 15.6397 7.96537 15.4513 8.15C15.3637 8.24814 15.2556 8.32586 15.1346 8.37769C15.0137 8.42953 14.8828 8.4542 14.7513 8.45H12.1513L10.4513 10.4L8.75132 8.45H2.45133C2.32225 8.45018 2.19448 8.42405 2.07584 8.37322C1.9572 8.32238 1.85015 8.24789 1.76125 8.15431C1.67235 8.06073 1.60346 7.95002 1.55877 7.82893C1.51408 7.70783 1.49452 7.5789 1.50132 7.45C1.49452 7.3211 1.51408 7.19217 1.55877 7.07108C1.60346 6.94998 1.67235 6.83927 1.76125 6.74569C1.85015 6.65211 1.9572 6.57763 2.07584 6.52679C2.19448 6.47595 2.32225 6.44982 2.45133 6.45H14.7513C15.0165 6.45 15.2709 6.55535 15.4584 6.74289C15.646 6.93043 15.7513 7.18478 15.7513 7.45Z" stroke="#FFA800" stroke-linecap="round" stroke-linejoin="round"/>
<path d="M7.25128 2H10.0013C11.1417 2 12.2354 2.45303 13.0418 3.25944C13.8482 4.06584 14.3013 5.15957 14.3013 6.3H2.95129C2.95129 5.15957 3.40432 4.06584 4.21072 3.25944C5.01713 2.45303 6.11085 2 7.25128 2Z" stroke="#FFA800" stroke-linecap="round" stroke-linejoin="round"/>
<path d="M5.80133 4.25L6.40134 4.9" stroke="#FFA800" stroke-linecap="round" stroke-linejoin="round"/>
<path d="M11.2013 4L11.8513 4.7" stroke="#FFA800" stroke-linecap="round" stroke-linejoin="round"/>
<path d="M8.20129 4.3L8.90129 3.64999" stroke="#FFA800" stroke-linecap="round" stroke-linejoin="round"/>
</svg>
