<svg width="16" height="16" viewBox="0 0 16 16" fill="none" xmlns="http://www.w3.org/2000/svg">
<path d="M2.45129 11.5H13.7513V12.25C13.7513 12.7804 13.5406 13.2891 13.1655 13.6642C12.7904 14.0393 12.2817 14.25 11.7513 14.25H4.45129C3.92086 14.25 3.41215 14.0393 3.03708 13.6642C2.66201 13.2891 2.45129 12.7804 2.45129 12.25V11.5Z" stroke="#F2F2F2" stroke-linecap="round" stroke-linejoin="round"/>
<path d="M12.4013 8.44999H13.7013C13.9025 8.44328 14.1029 8.47713 14.2907 8.5495C14.4785 8.62187 14.6498 8.73129 14.7945 8.87125C14.9391 9.01122 15.0541 9.17886 15.1325 9.36418C15.211 9.54951 15.2514 9.74873 15.2513 9.94999C15.2513 10.3611 15.088 10.7553 14.7973 11.046C14.5067 11.3367 14.1124 11.5 13.7013 11.5H2.50132C2.30006 11.5001 2.10085 11.4597 1.91552 11.3812C1.73019 11.3027 1.56255 11.1877 1.42259 11.0431C1.28262 10.8985 1.1732 10.7272 1.10082 10.5394C1.02845 10.3516 0.994612 10.1511 1.00132 9.94999C0.994336 9.75113 1.02837 9.55295 1.10128 9.36781C1.17419 9.18266 1.28443 9.0145 1.42513 8.8738C1.56584 8.73309 1.73399 8.62285 1.91914 8.54994C2.10428 8.47703 2.30246 8.44301 2.50132 8.44999H6.90133" stroke="#F2F2F2" stroke-linecap="round" stroke-linejoin="round"/>
<path d="M15.2513 7.45001C15.2476 7.71378 15.1397 7.96539 14.9513 8.15002C14.8637 8.24815 14.7556 8.32588 14.6346 8.37771C14.5137 8.42954 14.3828 8.45422 14.2513 8.45001H11.6513L9.95133 10.4L8.25132 8.45001H1.95133C1.82225 8.45019 1.69448 8.42407 1.57584 8.37323C1.4572 8.32239 1.35015 8.24791 1.26125 8.15433C1.17235 8.06075 1.10346 7.95004 1.05877 7.82894C1.01408 7.70785 0.994523 7.57891 1.00132 7.45001C0.994523 7.32111 1.01408 7.19219 1.05877 7.07109C1.10346 6.95 1.17235 6.83929 1.26125 6.74571C1.35015 6.65212 1.4572 6.57764 1.57584 6.5268C1.69448 6.47597 1.82225 6.44983 1.95133 6.45001H14.2513C14.5165 6.45001 14.7709 6.55537 14.9584 6.74291C15.146 6.93044 15.2513 7.1848 15.2513 7.45001Z" stroke="#F2F2F2" stroke-linecap="round" stroke-linejoin="round"/>
<path d="M6.75128 2H9.50128C10.6417 2 11.7354 2.45303 12.5418 3.25944C13.3482 4.06584 13.8013 5.15957 13.8013 6.3H2.45129C2.45129 5.15957 2.90432 4.06584 3.71072 3.25944C4.51713 2.45303 5.61085 2 6.75128 2Z" stroke="#F2F2F2" stroke-linecap="round" stroke-linejoin="round"/>
<path d="M5.30133 4.25L5.90134 4.9" stroke="#F2F2F2" stroke-linecap="round" stroke-linejoin="round"/>
<path d="M10.7013 4L11.3513 4.7" stroke="#F2F2F2" stroke-linecap="round" stroke-linejoin="round"/>
<path d="M7.70129 4.3L8.40129 3.64999" stroke="#F2F2F2" stroke-linecap="round" stroke-linejoin="round"/>
</svg>

