<svg width="143" height="143" viewBox="0 0 143 143" fill="none" xmlns="http://www.w3.org/2000/svg">
<path d="M9.51746 127.663H60.2636V131.031C60.2636 133.413 59.3173 135.697 57.6329 137.382C55.9486 139.066 53.664 140.012 51.282 140.012H18.4991C16.117 140.012 13.8325 139.066 12.1481 137.382C10.4637 135.697 9.51746 133.413 9.51746 131.031V127.663Z" fill="#FFDC99" stroke="#FFA800" stroke-width="5.5" stroke-linecap="round" stroke-linejoin="round"/>
<path d="M54.2011 113.966H60.0392C60.9425 113.936 61.8427 114.088 62.686 114.413C63.5294 114.738 64.2988 115.229 64.9483 115.858C65.5978 116.486 66.1141 117.239 66.4665 118.071C66.819 118.903 67.0004 119.798 66.9999 120.702C66.9999 122.548 66.2666 124.319 64.9612 125.624C63.6558 126.929 61.8853 127.663 60.0392 127.663H9.74206C8.83823 127.663 7.94361 127.482 7.11134 127.129C6.27908 126.777 5.52621 126.26 4.89766 125.611C4.26912 124.961 3.7777 124.192 3.45269 123.349C3.12768 122.505 2.97571 121.605 3.00584 120.702C2.97448 119.809 3.12732 118.919 3.45475 118.087C3.78217 117.256 4.27723 116.501 4.90911 115.869C5.54099 115.237 6.29612 114.742 7.12758 114.415C7.95905 114.087 8.849 113.934 9.74206 113.966H29.5017" fill="#FFDC99"/>
<path d="M54.2011 113.966H60.0392C60.9425 113.936 61.8427 114.088 62.686 114.413C63.5294 114.738 64.2988 115.229 64.9483 115.858C65.5978 116.486 66.1141 117.239 66.4665 118.071C66.819 118.903 67.0004 119.798 66.9999 120.702C66.9999 122.548 66.2666 124.319 64.9612 125.624C63.6558 126.929 61.8853 127.663 60.0392 127.663H9.74206C8.83823 127.663 7.94361 127.482 7.11134 127.129C6.27908 126.777 5.5262 126.26 4.89766 125.611C4.26912 124.961 3.7777 124.192 3.45269 123.349C3.12768 122.505 2.97571 121.605 3.00584 120.702C2.97448 119.809 3.12732 118.919 3.45475 118.087C3.78217 117.256 4.27723 116.501 4.90911 115.869C5.54099 115.237 6.29612 114.742 7.12758 114.415C7.95905 114.087 8.849 113.934 9.74206 113.966H29.5017" stroke="#FFA800" stroke-width="5.5" stroke-linecap="round" stroke-linejoin="round"/>
<path d="M67 109.475C66.9831 110.659 66.4989 111.789 65.6528 112.619C65.2592 113.059 64.7737 113.408 64.2305 113.641C63.6874 113.874 63.0998 113.985 62.5092 113.966H50.8331L43.1987 122.723L35.5643 113.966H7.27224C6.69258 113.967 6.1188 113.849 5.58599 113.621C5.05318 113.393 4.57247 113.058 4.17322 112.638C3.77398 112.218 3.4646 111.72 3.26391 111.177C3.06321 110.633 2.9754 110.054 3.00591 109.475C2.9754 108.896 3.06321 108.317 3.26391 107.773C3.4646 107.229 3.77398 106.732 4.17322 106.312C4.57247 105.892 5.05318 105.557 5.58599 105.329C6.1188 105.101 6.69258 104.983 7.27224 104.984H62.5092C63.7002 104.984 64.8426 105.457 65.6847 106.299C66.5269 107.142 67 108.284 67 109.475Z" fill="white" stroke="#FFA800" stroke-width="5.5" stroke-linecap="round" stroke-linejoin="round"/>
<path d="M28.8279 85H41.1776C46.2991 85 51.2108 87.0345 54.8322 90.6559C58.4536 94.2773 60.4882 99.189 60.4882 104.311H9.51746C9.51746 99.189 11.5519 94.2773 15.1733 90.6559C18.7947 87.0345 23.7064 85 28.8279 85Z" fill="#FFDC99" stroke="#FFA800" stroke-width="5.5" stroke-linecap="round" stroke-linejoin="round"/>
<path d="M22.3164 95.1044L25.0109 98.0234" stroke="#FFA800" stroke-width="5.5" stroke-linecap="round" stroke-linejoin="round"/>
<path d="M46.5667 93.9816L49.4857 97.1251" stroke="#FFA800" stroke-width="5.5" stroke-linecap="round" stroke-linejoin="round"/>
<path d="M33.0944 95.3288L36.2379 92.4098" stroke="#FFA800" stroke-width="5.5" stroke-linecap="round" stroke-linejoin="round"/>
<rect x="92.2" y="10.2" width="37.8" height="39.6" fill="white"/>
<path d="M106 24H109V27H106C105.172 27 104.5 26.3284 104.5 25.5C104.5 24.6716 105.172 24 106 24Z" fill="#0085FF"/>
<path d="M115 36V33H118C118.828 33 119.5 33.6716 119.5 34.5C119.5 35.3284 118.828 36 118 36H115Z" fill="#0085FF"/>
<path fill-rule="evenodd" clip-rule="evenodd" d="M112 0C95.4315 0 82 13.4315 82 30C82 46.5685 95.4315 60 112 60C128.569 60 142 46.5685 142 30C142 13.4315 128.569 0 112 0ZM109 15C109 13.3431 110.343 12 112 12C113.657 12 115 13.3431 115 15V18H121C122.657 18 124 19.3431 124 21C124 22.6569 122.657 24 121 24H115V27H118C122.142 27 125.5 30.3579 125.5 34.5C125.5 38.6421 122.142 42 118 42H115V45C115 46.6569 113.657 48 112 48C110.343 48 109 46.6569 109 45V42H103C101.343 42 100 40.6569 100 39C100 37.3431 101.343 36 103 36H109V33H106C101.858 33 98.5 29.6421 98.5 25.5C98.5 21.3579 101.858 18 106 18H109V15Z" fill="#0085FF"/>
<path d="M32 66C32 66.8285 32.6716 67.5 33.5 67.5C34.3284 67.5 35 66.8285 35 66H32ZM66.5253 31.5949C67.13 31.0286 67.1611 30.0794 66.5948 29.4747L57.3668 19.6211C56.8006 19.0164 55.8513 18.9853 55.2467 19.5516C54.642 20.1178 54.6109 21.0671 55.1772 21.6718L63.3798 30.4305L54.621 38.6332C54.0164 39.1995 53.9852 40.1487 54.5515 40.7534C55.1178 41.358 56.067 41.3892 56.6717 40.8229L66.5253 31.5949ZM35 66C35 59.3668 35.0955 53.867 35.6979 49.3303C36.3 44.7952 37.3913 41.3791 39.2704 38.8269C42.962 33.8129 50.2065 31.4994 65.4508 31.9992L65.5492 29.0009C50.2935 28.5007 41.538 30.6872 36.8546 37.0482C34.5462 40.1835 33.3562 44.1736 32.724 48.9354C32.092 53.6956 32 59.3833 32 66H35Z" fill="#80C2FF"/>
<path d="M82.2163 111.284C81.3878 111.284 80.7163 110.612 80.7163 109.784C80.7163 108.955 81.3878 108.284 82.2163 108.284L82.2163 111.284ZM116.621 76.7585C117.188 76.1538 118.137 76.1227 118.742 76.689L128.595 85.917C129.2 86.4832 129.231 87.4325 128.665 88.0371C128.098 88.6418 127.149 88.6729 126.545 88.1067L117.786 79.904L109.583 88.6628C109.017 89.2674 108.068 89.2986 107.463 88.7323C106.858 88.166 106.827 87.2168 107.393 86.6121L116.621 76.7585ZM82.2163 108.284C88.8496 108.284 94.3493 108.188 98.886 107.586C103.421 106.984 106.837 105.893 109.389 104.013C114.403 100.322 116.717 93.0773 116.217 77.833L119.215 77.7347C119.716 92.9903 117.529 101.746 111.168 106.429C108.033 108.738 104.043 109.928 99.2809 110.56C94.5207 111.192 88.833 111.284 82.2163 111.284L82.2163 108.284Z" fill="#80C2FF"/>
</svg>

