<svg width="106" height="96" viewBox="0 0 106 96" fill="none" xmlns="http://www.w3.org/2000/svg">
<path d="M14.7079 69H82.5079V73.5C82.5079 76.6826 81.2436 79.7349 78.9932 81.9853C76.7427 84.2357 73.6905 85.5 70.5079 85.5H26.7079C23.5253 85.5 20.4731 84.2357 18.2227 81.9853C15.9722 79.7349 14.7079 76.6826 14.7079 73.5V69Z" fill="#FFDC99" stroke="#FFA800" stroke-width="4.5" stroke-linecap="round" stroke-linejoin="round"/>
<path d="M74.4078 50.6999H82.2079C83.4148 50.6597 84.6174 50.8628 85.7442 51.297C86.871 51.7312 87.8989 52.3878 88.7667 53.2275C89.6345 54.0673 90.3242 55.0731 90.7952 56.1851C91.2661 57.297 91.5085 58.4924 91.5078 59.6999C91.5078 62.1665 90.528 64.5319 88.7839 66.276C87.0398 68.0201 84.6744 69 82.2079 69H15.0078C13.8002 69.0006 12.605 68.7583 11.493 68.2874C10.381 67.8164 9.37516 67.1265 8.53539 66.2587C7.69562 65.391 7.03905 64.3631 6.60482 63.2363C6.17058 62.1095 5.96755 60.9068 6.0078 59.6999C5.9659 58.5068 6.1701 57.3177 6.60756 56.2068C7.04503 55.0959 7.70645 54.087 8.55068 53.2428C9.39491 52.3985 10.4038 51.7371 11.5147 51.2997C12.6256 50.8622 13.8146 50.658 15.0078 50.6999H41.4079" fill="#FFDC99"/>
<path d="M74.4078 50.6999H82.2079C83.4148 50.6597 84.6174 50.8628 85.7442 51.297C86.871 51.7312 87.899 52.3878 88.7667 53.2275C89.6345 54.0673 90.3242 55.0731 90.7952 56.1851C91.2661 57.297 91.5085 58.4924 91.5078 59.6999C91.5078 62.1665 90.528 64.5319 88.7839 66.276C87.0398 68.0201 84.6744 69 82.2079 69H15.0078C13.8002 69.0006 12.605 68.7583 11.493 68.2874C10.381 67.8164 9.37516 67.1265 8.53539 66.2587C7.69562 65.391 7.03905 64.3631 6.60482 63.2363C6.17058 62.1095 5.96755 60.9068 6.0078 59.6999C5.9659 58.5068 6.1701 57.3177 6.60756 56.2068C7.04503 55.0959 7.70645 54.087 8.55068 53.2428C9.39491 52.3985 10.4038 51.7371 11.5147 51.2997C12.6256 50.8622 13.8146 50.658 15.0078 50.6999H41.4079" stroke="#FFA800" stroke-width="4.5" stroke-linecap="round" stroke-linejoin="round"/>
<path d="M91.5079 44.7C91.4854 46.2826 90.8385 47.7922 89.708 48.9C89.182 49.4888 88.5334 49.9551 87.8077 50.2661C87.082 50.5771 86.297 50.7252 85.5079 50.7H69.908L59.708 62.4L49.5079 50.7H11.708C10.9335 50.701 10.1669 50.5443 9.45504 50.2393C8.74318 49.9342 8.10091 49.4873 7.5675 48.9258C7.03409 48.3644 6.62074 47.7001 6.35259 46.9735C6.08445 46.247 5.96714 45.4733 6.0079 44.7C5.96714 43.9266 6.08445 43.153 6.35259 42.4264C6.62074 41.6999 7.03409 41.0356 7.5675 40.4741C8.10091 39.9126 8.74318 39.4657 9.45504 39.1607C10.1669 38.8557 10.9335 38.6989 11.708 38.7H85.5079C87.0992 38.7 88.6254 39.3321 89.7506 40.4573C90.8759 41.5825 91.5079 43.1087 91.5079 44.7Z" fill="white" stroke="#FFA800" stroke-width="4.5" stroke-linecap="round" stroke-linejoin="round"/>
<path d="M40.5079 12H57.0079C63.8505 12 70.4128 14.7182 75.2512 19.5566C80.0897 24.3951 82.808 30.9574 82.808 37.8H14.7079C14.7079 30.9574 17.4261 24.3951 22.2645 19.5566C27.103 14.7182 33.6653 12 40.5079 12Z" fill="#FFDC99" stroke="#FFA800" stroke-width="4.5" stroke-linecap="round" stroke-linejoin="round"/>
<path d="M31.8079 25.5L35.4079 29.4" stroke="#FFA800" stroke-width="4.5" stroke-linecap="round" stroke-linejoin="round"/>
<path d="M64.2079 24L68.1079 28.2" stroke="#FFA800" stroke-width="4.5" stroke-linecap="round" stroke-linejoin="round"/>
<path d="M46.2079 25.7999L50.4079 21.8999" stroke="#FFA800" stroke-width="4.5" stroke-linecap="round" stroke-linejoin="round"/>
<rect x="75.1714" y="17.8572" width="21" height="18" fill="white"/>
<path fill-rule="evenodd" clip-rule="evenodd" d="M88.5284 10.3581C87.2267 9.0564 85.1161 9.0564 83.8144 10.3581L80.6485 13.524H76.1714C74.3304 13.524 72.838 15.0164 72.838 16.8573V21.3345L69.6722 24.5003C68.3705 25.802 68.3705 27.9126 69.6722 29.2143L72.838 32.3801V36.8573C72.838 38.6983 74.3304 40.1906 76.1714 40.1906H80.6485L83.8144 43.3565C85.1161 44.6582 87.2267 44.6582 88.5284 43.3565L91.6942 40.1906H96.1714C98.0123 40.1906 99.5047 38.6983 99.5047 36.8573V32.3802L102.671 29.2143C103.972 27.9126 103.972 25.802 102.671 24.5003L99.5047 21.3344V16.8573C99.5047 15.0164 98.0123 13.524 96.1714 13.524H91.6942L88.5284 10.3581Z" fill="#0085FF"/>
<g clip-path="url(#clip0_12_1039)">
<path d="M93.5366 34.4779V26.1323H78.463V34.4779C78.463 35.2669 79.1026 35.9065 79.8916 35.9065H92.108C92.897 35.9065 93.5366 35.2669 93.5366 34.4779Z" stroke="white" stroke-width="2" stroke-linecap="round" stroke-linejoin="round"/>
<path d="M86 35.9062V26.1294" stroke="white" stroke-width="2" stroke-linecap="round" stroke-linejoin="round"/>
<path d="M94.7684 23.8453V24.7036C94.7684 25.4926 94.1288 26.1322 93.3398 26.1322H78.6601C77.8711 26.1322 77.2315 25.4926 77.2315 24.7036V23.8453C77.2315 23.0563 77.8711 22.4167 78.6601 22.4167H93.3398C94.1288 22.4167 94.7684 23.0563 94.7684 23.8453Z" stroke="white" stroke-width="2" stroke-linecap="round" stroke-linejoin="round"/>
<path d="M86.0002 22.4167C86.0002 21.1667 84.5418 18.25 82.3543 18.25C78.7956 18.25 80.092 22.4167 81.7953 22.4167" stroke="white" stroke-width="2" stroke-linecap="round" stroke-linejoin="round"/>
<path d="M86 22.4167C86 21.1667 87.4583 18.25 89.6458 18.25C93.2046 18.25 91.9081 22.4167 90.2049 22.4167" stroke="white" stroke-width="2" stroke-linecap="round" stroke-linejoin="round"/>
</g>
<defs>
<clipPath id="clip0_12_1039">
<rect width="20" height="20" fill="white" transform="translate(76 17)"/>
</clipPath>
</defs>
</svg>
