<svg width="141" height="140" viewBox="0 0 141 140" fill="none" xmlns="http://www.w3.org/2000/svg">
<path d="M21.9491 100.625H120.824V107.188C120.824 111.829 118.98 116.28 115.698 119.562C112.416 122.844 107.965 124.688 103.324 124.688H39.4491C34.8078 124.688 30.3566 122.844 27.0747 119.562C23.7928 116.28 21.9491 111.829 21.9491 107.188V100.625Z" fill="#FFDC99" stroke="#FFA800" stroke-width="5.5" stroke-linecap="round" stroke-linejoin="round"/>
<path d="M109.011 73.9375H120.387C122.147 73.8788 123.9 74.1749 125.544 74.8082C127.187 75.4415 128.686 76.3989 129.952 77.6235C131.217 78.8482 132.223 80.3151 132.91 81.9367C133.596 83.5583 133.95 85.3014 133.949 87.0625C133.949 90.6595 132.52 94.1092 129.977 96.6526C127.433 99.1961 123.984 100.625 120.387 100.625H22.3865C20.6254 100.626 18.8823 100.273 17.2607 99.5858C15.6391 98.899 14.1722 97.8929 12.9475 96.6274C11.7229 95.3619 10.7654 93.8629 10.1321 92.2197C9.49887 90.5764 9.20278 88.8225 9.26148 87.0625C9.20037 85.3224 9.49816 83.5884 10.1361 81.9684C10.7741 80.3483 11.7387 78.8769 12.9698 77.6458C14.201 76.4146 15.6723 75.45 17.2924 74.8121C18.9124 74.1741 20.6464 73.8764 22.3865 73.9375H60.8866" fill="#FFDC99"/>
<path d="M109.011 73.9375H120.387C122.147 73.8788 123.9 74.1749 125.544 74.8082C127.187 75.4415 128.686 76.3989 129.952 77.6235C131.217 78.8482 132.223 80.3151 132.91 81.9367C133.596 83.5583 133.95 85.3014 133.949 87.0625C133.949 90.6595 132.52 94.1092 129.977 96.6526C127.433 99.1961 123.984 100.625 120.387 100.625H22.3865C20.6254 100.626 18.8823 100.273 17.2607 99.5858C15.6391 98.899 14.1722 97.8929 12.9475 96.6274C11.7229 95.3619 10.7654 93.8629 10.1321 92.2197C9.49887 90.5764 9.20278 88.8225 9.26148 87.0625C9.20037 85.3224 9.49816 83.5884 10.1361 81.9684C10.7741 80.3483 11.7387 78.8769 12.9698 77.6458C14.201 76.4146 15.6723 75.45 17.2924 74.8121C18.9124 74.1741 20.6464 73.8764 22.3865 73.9375H60.8866" stroke="#FFA800" stroke-width="5.5" stroke-linecap="round" stroke-linejoin="round"/>
<path d="M133.949 65.1875C133.916 67.4955 132.973 69.697 131.324 71.3125C130.557 72.1712 129.611 72.8513 128.553 73.3048C127.495 73.7584 126.35 73.9743 125.199 73.9375H102.449L87.5741 91L72.699 73.9375H17.5741C16.4447 73.939 15.3267 73.7105 14.2886 73.2656C13.2505 72.8208 12.3138 72.1691 11.5359 71.3502C10.758 70.5314 10.1552 69.5627 9.7642 68.5031C9.37316 67.4435 9.20207 66.3153 9.26152 65.1875C9.20207 64.0596 9.37316 62.9315 9.7642 61.8719C10.1552 60.8123 10.758 59.8436 11.5359 59.0248C12.3138 58.206 13.2505 57.5542 14.2886 57.1094C15.3267 56.6646 16.4447 56.4359 17.5741 56.4375H125.199C127.52 56.4375 129.745 57.3593 131.386 59.0003C133.027 60.6412 133.949 62.8668 133.949 65.1875Z" fill="white" stroke="#FFA800" stroke-width="5.5" stroke-linecap="round" stroke-linejoin="round"/>
<path d="M59.574 17.5H83.6365C93.6153 17.5 103.185 21.464 110.241 28.5201C117.297 35.5761 121.262 45.1463 121.262 55.125H21.9491C21.9491 45.1463 25.9131 35.5761 32.9691 28.5201C40.0252 21.464 49.5952 17.5 59.574 17.5Z" fill="#FFDC99" stroke="#FFA800" stroke-width="5.5" stroke-linecap="round" stroke-linejoin="round"/>
<path d="M46.8865 37.1875L52.1365 42.875" stroke="#FFA800" stroke-width="5.5" stroke-linecap="round" stroke-linejoin="round"/>
<path d="M94.1366 35L99.824 41.125" stroke="#FFA800" stroke-width="5.5" stroke-linecap="round" stroke-linejoin="round"/>
<path d="M67.8866 37.625L74.0116 31.9375" stroke="#FFA800" stroke-width="5.5" stroke-linecap="round" stroke-linejoin="round"/>
<rect x="106" y="21" width="21" height="18" fill="white"/>
<path fill-rule="evenodd" clip-rule="evenodd" d="M119.357 13.5009C118.055 12.1992 115.945 12.1992 114.643 13.5009L111.477 16.6668H107C105.159 16.6668 103.667 18.1591 103.667 20.0001V24.4773L100.501 27.6431C99.1991 28.9448 99.1991 31.0554 100.501 32.3571L103.667 35.5229V40.0001C103.667 41.841 105.159 43.3334 107 43.3334H111.477L114.643 46.4992C115.945 47.801 118.055 47.801 119.357 46.4992L122.523 43.3334H127C128.841 43.3334 130.333 41.841 130.333 40.0001V35.523L133.499 32.3571C134.801 31.0554 134.801 28.9448 133.499 27.6431L130.333 24.4772V20.0001C130.333 18.1591 128.841 16.6668 127 16.6668H122.523L119.357 13.5009ZM124.489 27.328C125.14 26.6772 125.14 25.6219 124.489 24.971C123.839 24.3201 122.783 24.3201 122.132 24.971L115.058 32.0452L112.112 29.099C111.461 28.4481 110.406 28.4481 109.755 29.099C109.104 29.7498 109.104 30.8051 109.755 31.456L113.762 35.4629C114.478 36.1789 115.639 36.1789 116.355 35.4629L124.489 27.328Z" fill="#0085FF"/>
</svg>

